# xmcd CD database file
#
# Track frame offsets:
#	150
#	15002
#	32102
#	44100
#	59632
#	74737
#	86110
#	106792
#	118725
#	132832
#	144980
#	158210
#	172565
#	187667
#	206400
#	218845
#	235652
#
# Disc length: 3259 seconds
#
# Revision: 3
# Processed by: cddbd v1.5.2PL0 Copyright (c) Steve Scherf et al.
# Submitted via: CDex 1.51
#
DISCID=e40cb911
DTITLE=Various Artist - Country Ladies Vol2 (I Love Country)
DYEAR=1989
DGENRE=Country
TTITLE0=Seven Year Ache - Rosanne Cash
TTITLE1=Too Many Lovers - Crystal Gayle
TTITLE2=I Feel Fine - Sweethearts Of The Rodeo
TTITLE3=And Then Some - Charly McClain
TTITLE4=Could I Have Your Autograph - Dolly Parton
TTITLE5=Crazy Dreams - Janie Fricke
TTITLE6=A Lot Like Me - Mary Chapin Carpenter
TTITLE7=Hillbilly Girl With The Blues - Lacy J. Dalton
TTITLE8=Your Love - Tammy Wynette
TTITLE9=Outskirts Of Town - Annie Rattlesnake
TTITLE10=Rose Garden - Lynn Anderson
TTITLE11=Tennessee Flat Top Box - Rosanne Cash
TTITLE12=One Time, One Night - Sweethearts Of The Rodeo
TTITLE13=Downtown Train - Mary Chapin Carpenter
TTITLE14=Where Does Love Go - Janie Fricke
TTITLE15=Paradise Avenue - Charly Mcclain
TTITLE16=Tennessee - Crystal Gayle
EXTD=YEAR: 1989
EXTT0=
EXTT1=
EXTT2=
EXTT3=
EXTT4=
EXTT5=
EXTT6=
EXTT7=
EXTT8=
EXTT9=
EXTT10=
EXTT11=
EXTT12=
EXTT13=
EXTT14=
EXTT15=
EXTT16=
PLAYORDER=
